grf
version=1
nRows=17
nColumns=37
inDegrees=no
endheader
time	ground_force_1_vx	ground_force_1_vy	ground_force_1_vz	ground_force_1_px	ground_force_1_py	ground_force_1_pz	ground_moment_1_mx	ground_moment_1_my	ground_moment_1_mz	ground_force_2_vx	ground_force_2_vy	ground_force_2_vz	ground_force_2_px	ground_force_2_py	ground_force_2_pz	ground_moment_2_mx	ground_moment_2_my	ground_moment_2_mz	ground_force_3_vx	ground_force_3_vy	ground_force_3_vz	ground_force_3_px	ground_force_3_py	ground_force_3_pz	ground_moment_3_mx	ground_moment_3_my	ground_moment_3_mz	ground_force_4_vx	ground_force_4_vy	ground_force_4_vz	ground_force_4_px	ground_force_4_py	ground_force_4_pz	ground_moment_4_mx	ground_moment_4_my	ground_moment_4_mz
      0.00000000	      0.00000000	     -0.00000000	      0.00000000	      0.00000000	      0.00000000	      0.00000000	      0.00000000	      0.00000000	      0.00000000	     -7.15595484	     35.37681198	   -457.12203979	   -313.31708638	  -1045.63720769	      0.00000000	      0.00000000	      0.00000000	   2288.15537031	      7.45613540	    -36.74623936	   -533.50366211	   -344.47664484	   -738.26790372	      0.00000000	      0.00000000	     -0.00000000	  -1823.48861638	      0.00000000	     -0.00000000	      0.00000000	      0.00000000	      0.00000000	      0.00000000	      0.00000000	      0.00000000	      0.00000000
      0.01000000	      0.00000000	     -0.00000000	      0.00000000	      0.00000000	      0.00000000	      0.00000000	      0.00000000	      0.00000000	      0.00000000	     -7.23439312	     35.21484375	   -456.41519165	   -313.45073357	  -1045.28897459	      0.00000000	      0.00000000	      0.00000000	   2482.87060937	      7.06408560	    -36.87627091	   -534.11083984	   -344.03646860	   -737.66877979	      0.00000000	      0.00000000	     -0.00000000	  -1652.55791356	      0.00000000	     -0.00000000	      0.00000000	      0.00000000	      0.00000000	      0.00000000	      0.00000000	      0.00000000	      0.00000000
      0.02000000	      0.00000000	     -0.00000000	      0.00000000	      0.00000000	      0.00000000	      0.00000000	      0.00000000	      0.00000000	      0.00000000	     -7.68142748	     35.26010513	   -457.72119141	   -313.46677825	  -1045.64025782	      0.00000000	      0.00000000	      0.00000000	   2373.50448598	      6.74201644	    -36.71929991	   -533.85278320	   -344.08517229	   -737.32162853	      0.00000000	      0.00000000	     -0.00000000	  -1604.35095035	      0.00000000	     -0.00000000	      0.00000000	      0.00000000	      0.00000000	      0.00000000	      0.00000000	      0.00000000	      0.00000000
      0.03000000	      0.00000000	     -0.00000000	      0.00000000	      0.00000000	      0.00000000	      0.00000000	      0.00000000	      0.00000000	      0.00000000	     -7.50280619	     35.31386948	   -457.89913940	   -313.37578673	  -1045.75152147	      0.00000000	      0.00000000	      0.00000000	   2330.03979304	      6.91385570	    -36.53759063	   -532.30322266	   -344.20311521	   -738.19091176	      0.00000000	      0.00000000	     -0.00000000	  -1607.79371278	      0.00000000	     -0.00000000	      0.00000000	      0.00000000	      0.00000000	      0.00000000	      0.00000000	      0.00000000	      0.00000000
      0.04000000	      0.00000000	     -0.00000000	      0.00000000	      0.00000000	      0.00000000	      0.00000000	      0.00000000	      0.00000000	      0.00000000	     -7.77842808	     35.23307037	   -456.52618408	   -313.78969307	  -1044.63685644	      0.00000000	      0.00000000	      0.00000000	   2241.58394303	      7.06926408	    -36.47686066	   -532.21563721	   -343.99536496	   -737.63402534	      0.00000000	      0.00000000	     -0.00000000	  -1543.51108448	      0.00000000	     -0.00000000	      0.00000000	      0.00000000	      0.00000000	      0.00000000	      0.00000000	      0.00000000	      0.00000000
      0.05000000	      0.00000000	     -0.00000000	      0.00000000	      0.00000000	      0.00000000	      0.00000000	      0.00000000	      0.00000000	      0.00000000	     -7.81422567	     35.07127762	   -458.32281494	   -312.73433237	  -1045.93274894	      0.00000000	      0.00000000	      0.00000000	   2276.99789016	      7.09458126	    -36.61987748	   -533.42028809	   -343.73093232	   -737.14133490	      0.00000000	      0.00000000	     -0.00000000	  -1648.25409893	      0.00000000	     -0.00000000	      0.00000000	      0.00000000	      0.00000000	      0.00000000	      0.00000000	      0.00000000	      0.00000000
      0.06000000	      0.00000000	     -0.00000000	      0.00000000	      0.00000000	      0.00000000	      0.00000000	      0.00000000	      0.00000000	      0.00000000	     -8.03919506	     34.95517731	   -458.63595581	   -313.04856699	  -1045.97512520	      0.00000000	      0.00000000	      0.00000000	   2226.03570106	      6.98751370	    -36.38853516	   -532.80541992	   -344.23002636	   -737.57196992	      0.00000000	      0.00000000	     -0.00000000	  -1672.22575029	      0.00000000	     -0.00000000	      0.00000000	      0.00000000	      0.00000000	      0.00000000	      0.00000000	      0.00000000	      0.00000000
      0.07000000	      0.00000000	     -0.00000000	      0.00000000	      0.00000000	      0.00000000	      0.00000000	      0.00000000	      0.00000000	      0.00000000	     -7.92911196	     35.50007248	   -459.94400024	   -312.96465044	  -1047.05657852	      0.00000000	      0.00000000	      0.00000000	   2364.07176090	      6.72187823	    -36.10948621	   -532.10705566	   -344.12264446	   -738.05360818	      0.00000000	      0.00000000	     -0.00000000	  -1619.56638255	      0.00000000	     -0.00000000	      0.00000000	      0.00000000	      0.00000000	      0.00000000	      0.00000000	      0.00000000	      0.00000000
      0.08000000	      0.00000000	     -0.00000000	      0.00000000	      0.00000000	      0.00000000	      0.00000000	      0.00000000	      0.00000000	      0.00000000	     -7.57874584	     34.90210724	   -458.17764282	   -313.09451233	  -1045.66827099	      0.00000000	      0.00000000	      0.00000000	   2520.37194333	      7.00814884	    -36.21189179	   -531.97125244	   -344.33191884	   -738.58637282	      0.00000000	      0.00000000	     -0.00000000	  -1671.70612901	      0.00000000	     -0.00000000	      0.00000000	      0.00000000	      0.00000000	      0.00000000	      0.00000000	      0.00000000	      0.00000000
      0.09000000	      0.00000000	     -0.00000000	      0.00000000	      0.00000000	      0.00000000	      0.00000000	      0.00000000	      0.00000000	      0.00000000	     -8.02894592	     35.40743637	   -460.39898682	   -313.31961321	  -1046.16029652	      0.00000000	      0.00000000	      0.00000000	   2394.86727290	      6.93501396	    -36.00064148	   -531.90887451	   -344.27855065	   -738.53896371	      0.00000000	      0.00000000	     -0.00000000	  -1698.18722183	      0.00000000	     -0.00000000	      0.00000000	      0.00000000	      0.00000000	      0.00000000	      0.00000000	      0.00000000	      0.00000000
      0.10000000	      0.00000000	     -0.00000000	      0.00000000	      0.00000000	      0.00000000	      0.00000000	      0.00000000	      0.00000000	      0.00000000	     -7.67210388	     35.42462921	   -461.65267944	   -313.07585271	  -1047.46106534	      0.00000000	      0.00000000	      0.00000000	   2518.30878420	      6.74201649	    -36.21189176	   -533.43023682	   -343.84504581	   -737.37956812	      0.00000000	      0.00000000	     -0.00000000	  -1500.76401925	      0.00000000	     -0.00000000	      0.00000000	      0.00000000	      0.00000000	      0.00000000	      0.00000000	      0.00000000	      0.00000000
      0.11000000	      0.00000000	     -0.00000000	      0.00000000	      0.00000000	      0.00000000	      0.00000000	      0.00000000	      0.00000000	      0.00000000	     -7.88834333	     35.81686401	   -460.14547729	   -313.05759665	  -1045.07935763	      0.00000000	      0.00000000	      0.00000000	   2312.74561131	      7.07014436	    -36.02672257	   -534.13055420	   -343.79718334	   -737.41644341	      0.00000000	      0.00000000	     -0.00000000	  -1671.24342755	      0.00000000	     -0.00000000	      0.00000000	      0.00000000	      0.00000000	      0.00000000	      0.00000000	      0.00000000	      0.00000000
      0.12000000	      0.00000000	     -0.00000000	      0.00000000	      0.00000000	      0.00000000	      0.00000000	      0.00000000	      0.00000000	      0.00000000	     -7.69768524	     35.70327759	   -462.06320190	   -313.72213715	  -1045.94368672	      0.00000000	      0.00000000	      0.00000000	   2312.29056462	      7.19447678	    -36.15005938	   -533.43395996	   -344.21332019	   -737.82908844	      0.00000000	      0.00000000	     -0.00000000	  -1816.19821396	      0.00000000	     -0.00000000	      0.00000000	      0.00000000	      0.00000000	      0.00000000	      0.00000000	      0.00000000	      0.00000000
      0.13000000	      0.00000000	     -0.00000000	      0.00000000	      0.00000000	      0.00000000	      0.00000000	      0.00000000	      0.00000000	      0.00000000	     -7.68494511	     35.76672745	   -462.51412964	   -314.05129159	  -1045.33852732	      0.00000000	      0.00000000	      0.00000000	   2424.62688244	      6.95519418	    -36.06161178	   -533.74859619	   -343.97248788	   -738.05877485	      0.00000000	      0.00000000	     -0.00000000	  -1703.79186121	      0.00000000	     -0.00000000	      0.00000000	      0.00000000	      0.00000000	      0.00000000	      0.00000000	      0.00000000	      0.00000000
      0.14000000	      0.00000000	     -0.00000000	      0.00000000	      0.00000000	      0.00000000	      0.00000000	      0.00000000	      0.00000000	      0.00000000	     -7.71065140	     35.53772354	   -462.66571045	   -312.92238964	  -1045.98914808	      0.00000000	      0.00000000	      0.00000000	   2260.94292746	      7.18557044	    -35.84198061	   -532.62567139	   -343.95346519	   -738.58168473	      0.00000000	      0.00000000	     -0.00000000	  -1677.54562999	      0.00000000	     -0.00000000	      0.00000000	      0.00000000	      0.00000000	      0.00000000	      0.00000000	      0.00000000	      0.00000000
      0.15000000	      0.00000000	     -0.00000000	      0.00000000	      0.00000000	      0.00000000	      0.00000000	      0.00000000	      0.00000000	      0.00000000	     -7.36565399	     35.64060211	   -462.47433472	   -312.73748154	  -1045.55595555	      0.00000000	      0.00000000	      0.00000000	   2379.73007714	      7.03436728	    -35.94693055	   -532.67810059	   -344.15061213	   -738.39054187	      0.00000000	     -0.00000000	     -0.00000000	  -1703.81882810	      0.00000000	     -0.00000000	      0.00000000	      0.00000000	      0.00000000	      0.00000000	      0.00000000	      0.00000000	      0.00000000
      0.16000000	      0.00000000	     -0.00000000	      0.00000000	      0.00000000	      0.00000000	      0.00000000	      0.00000000	      0.00000000	      0.00000000	     -7.14795732	     35.88053894	   -460.74523926	   -313.63844082	  -1044.94678342	      0.00000000	      0.00000000	      0.00000000	   2283.93316242	      7.27428121	    -36.08194033	   -531.69610596	   -344.29757365	   -738.87077594	      0.00000000	      0.00000000	     -0.00000000	  -1756.26402667	      0.00000000	     -0.00000000	      0.00000000	      0.00000000	      0.00000000	      0.00000000	      0.00000000	      0.00000000	      0.00000000
